<svg xmlns:inkscape="http://www.inkscape.org/namespaces/inkscape" xmlns:sodipodi="http://sodipodi.sourceforge.net/DTD/sodipodi-0.dtd" xmlns="http://www.w3.org/2000/svg" xmlns:svg="http://www.w3.org/2000/svg" width="1200px" height="400px" viewBox="0 0 1200 400" id="SVGRoot" sodipodi:docname="logo.svg" inkscape:version="1.1 (c68e22c387, 2021-05-23)"><defs id="defs119"></defs><g inkscape:label="Layer 1" inkscape:groupmode="layer" id="layer1"><polygon id="_157729880" class="fil0" points="112.09,20.8121 102.488,0.884061 100.44,40.6907 127.339,52.3849 118.608,35.0479 138.25,20.359 " style="clip-rule:evenodd;fill:#28166f;fill-rule:evenodd;image-rendering:optimizeQuality;shape-rendering:geometricPrecision;text-rendering:geometricPrecision" transform="matrix(3.8690349,0,0,3.8690349,-151.90434,32.253531)"></polygon><polygon id="_157729424" class="fil1" points="46.9395,43.4836 49.9066,51.9503 81.9507,37.0239 81.9507,48.7122 53.4283,61.998 56.3957,70.4645 81.9507,58.5608 81.9507,70.2491 59.9172,80.5123 62.9295,88.8989 88.5838,77.011 114.465,88.8989 117.387,80.6828 90.7923,68.331 91.0929,56.5782 120.969,70.6631 123.987,62.2202 91.345,46.724 92.6233,0 40.4505,24.9696 43.4179,33.4358 81.9507,15.4869 81.9507,27.1751 " style="clip-rule:evenodd;fill:#da251d;fill-rule:evenodd;image-rendering:optimizeQuality;shape-rendering:geometricPrecision;text-rendering:geometricPrecision" transform="matrix(3.8690349,0,0,3.8690349,-151.90434,32.253531)"></polygon><g id="g20" style="clip-rule:evenodd;fill-rule:evenodd;image-rendering:optimizeQuality;shape-rendering:geometricPrecision;text-rendering:geometricPrecision" transform="matrix(4.5509924,0,0,7.4353209,379.22613,-732.80757)"><g id="g17"><path id="_157729040" class="fil2" d="m 170.976,120.729 v 2.94456 H 159.9457 V 120.729 Z m -10.0471,-1.96135 c -1.79919,0 -2.94456,-0.0365 -3.43612,-0.12025 0.0836,0.40794 0.12543,1.26572 0.12543,2.57316 v 1.84109 c 0,1.63175 -0.0418,2.61497 -0.12543,2.93928 0.24578,-0.0784 1.43306,-0.16216 3.55637,-0.24578 h 3.18526 v 2.57316 h -4.65485 c -1.47487,0 -2.4529,0 -2.94456,0 -0.65382,-0.0784 -1.22381,-0.16206 -1.71547,-0.24051 v 2.44763 c 0.81588,-0.16215 2.32738,-0.24587 4.5345,-0.24587 h 4.78038 v 2.94466 h -6.12972 c -3.023,0 -4.90063,-0.0418 -5.63806,-0.12025 v 2.44763 c 0.65372,-0.16216 2.53652,-0.24588 5.63806,-0.24588 h 13.6088 c 3.59828,0 5.84203,0.0837 6.74163,0.24588 v -2.57325 c -1.79919,0.16216 -4.04294,0.24587 -6.74163,0.24587 h -5.02616 v -2.94466 h 4.78028 c 2.36928,0 3.88069,0.0837 4.5346,0.24588 v -2.44763 c -0.5702,0.0784 -2.03979,0.16216 -4.40907,0.2405 h -4.90581 v -2.57316 h 2.94456 c 2.12331,0.0836 3.43094,0.16734 3.9225,0.24578 -0.0837,-0.49165 -0.12543,-1.34934 -0.12543,-2.57325 v -2.32738 c 0,-1.14547 0.0417,-1.96135 0.12543,-2.4529 -0.65372,0.0837 -2.12859,0.12025 -4.41415,0.12025 h -8.21132 z m 0.48638,-6.24997 c -0.24578,-0.24578 -0.85769,-0.77407 -1.83572,-1.59522 -0.82115,-0.73216 -1.34934,-1.22381 -1.59522,-1.46959 l -2.20703,1.59512 c 1.46959,1.14547 2.61506,2.20712 3.43094,3.18516 z m 5.27203,2.0816 c 0,-1.79391 0.0418,-3.47285 0.12543,-5.02088 0,-0.16743 0.0784,-0.41321 0.2406,-0.73743 0.16743,-0.3296 0.24588,-0.49176 0.24588,-0.49176 0.0837,-0.16206 -0.61191,-0.24568 -2.0816,-0.24568 -0.49166,-0.0784 -0.8996,-0.12035 -1.22909,-0.12035 0.0837,0.49166 0.16733,1.14537 0.24587,1.96125 0,0.49166 0,2.03979 0,4.65485 h -6.86198 c -2.04497,0 -3.51466,-0.12035 -4.41425,-0.36613 0.0837,0.3295 0.12563,0.69553 0.12563,1.10356 0,0.3295 0,0.98331 0,1.96135 0,1.63703 -0.0837,2.81893 -0.24588,3.55637 h 2.69351 c 0,-0.24568 0,-0.61181 0,-1.10346 -0.0784,-1.14547 -0.12025,-2.20712 -0.12025,-3.19034 h 20.4707 c 0,1.47487 0,2.411 0,2.82421 0,0.57 -0.0418,0.97804 -0.12553,1.22391 h 2.94456 c -0.0837,-1.06175 -0.12035,-2.12351 -0.12035,-3.18526 0,-0.16733 0,-0.61718 0,-1.34934 0.0784,-0.82115 0.12035,-1.39115 0.12035,-1.71547 -0.98321,0.0784 -2.20712,0.16216 -3.67672,0.2406 h -2.94466 c 1.06175,-1.46969 1.841,-2.44763 2.33265,-2.93938 0.32432,-0.40784 0.65372,-0.69562 0.97804,-0.85768 0.0837,-0.0836 0.12552,-0.12553 0.12552,-0.12553 0.16216,-0.0784 -0.41311,-0.40794 -1.72074,-0.97803 -0.57,-0.24578 -1.01985,-0.44985 -1.34415,-0.61201 -0.49156,1.38607 -1.47478,3.22707 -2.94456,5.51263 h -2.81893 z"></path><path id="_157728680" class="fil2" d="m 131.635,120.242 c -1.39125,0 -2.77722,-0.0837 -4.16837,-0.24588 -0.24588,0 -0.40804,0 -0.49175,0 v 2.57316 c 0,0 0.12552,0 0.3714,0 1.46969,-0.16206 2.89747,-0.24568 4.28872,-0.24568 h 8.33684 c -1.96135,0.65372 -3.67682,1.30743 -5.15178,1.96115 v 2.20722 h -8.4571 c -0.81588,0 -2.03969,-0.0837 -3.67682,-0.24587 -0.49156,0 -0.77397,0 -0.85769,0 v 2.81913 c 0.0837,0 0.3295,0 0.73744,0 1.55331,-0.16216 2.81903,-0.24588 3.79707,-0.24588 h 8.4571 v 3.92259 c 0,0.40794 -0.24051,0.65382 -0.73216,0.73744 -0.40794,0.16215 -1.43306,0.16215 -3.06491,0 0.65381,0.73225 1.10356,1.71547 1.34944,2.93928 2.03979,-0.0784 3.38913,-0.28242 4.04285,-0.61181 0.65372,-0.40804 0.98331,-1.14547 0.98331,-2.20722 v -4.78028 h 7.10766 c 1.46969,0 2.93938,0.0837 4.41425,0.24587 0.24588,0 0.40804,0 0.48648,0 v -2.81913 c -0.0784,0 -0.2406,0 -0.48648,0 -1.47487,0.16216 -3.023,0.24588 -4.66003,0.24588 h -6.74163 v -1.22391 c 0.24578,-0.0837 0.65381,-0.24578 1.22381,-0.49156 2.61506,-1.06175 4.49797,-1.67893 5.64334,-1.84109 v -2.81903 c -0.0836,0 -0.3295,0 -0.73753,0 -0.8996,0.0837 -1.59512,0.12563 -2.08678,0.12563 h -9.92669 z m -0.61201,-7.11303 c -1.22909,-1.96125 -2.24893,-3.31059 -3.06481,-4.04294 l -2.4529,1.10366 c 1.06175,0.97804 2.04487,2.28557 2.94446,3.9225 l 2.57325,-0.98321 z m 6.6162,-0.61191 c -0.73225,-2.453 -1.30763,-3.9644 -1.71547,-4.5345 l -2.69351,0.36603 c 0.73216,1.96135 1.26562,3.55656 1.58985,4.78038 l 2.81913,-0.6119 z m 4.41415,2.32738 c 0.98332,-1.63185 1.96135,-3.10144 2.94456,-4.40897 0.16216,-0.32949 0.48638,-0.61708 0.97804,-0.85768 0.16216,-0.0837 0.24578,-0.16744 0.24578,-0.24588 -0.16216,-0.3294 -1.22381,-0.82115 -3.18506,-1.47487 -0.89959,2.69878 -2.08687,5.02616 -3.55656,6.98741 h -13.9748 c -1.55341,-0.0783 -2.61506,-0.20397 -3.18516,-0.36613 0.0784,0.49166 0.12035,1.55341 0.12035,3.18516 0,0.82115 -0.0784,1.67893 -0.24588,2.57853 0,0.24051 0,0.40794 0,0.48638 h 2.94456 c -0.0836,-0.0784 -0.12552,-0.36612 -0.12552,-0.85778 0,-0.32422 0,-1.26572 0,-2.81903 h 21.2081 c 0,1.30763 0,2.12351 0,2.4529 0,0.49165 -0.0418,0.85778 -0.12026,1.10366 h 2.81903 c 0,-0.0837 0,-0.32959 0,-0.73753 -0.0837,-0.97794 -0.12552,-1.71547 -0.12552,-2.20712 0,-1.71547 0.0418,-2.73541 0.12552,-3.06481 -0.49155,0.16743 -1.63703,0.24578 -3.43621,0.24578 h -3.43093 z"></path><path id="_157728392" class="fil2" d="m 109.483,119.614 c 0.89959,-1.55331 1.78961,-3.10545 2.69878,-3.66529 0.15327,-0.0944 0.24578,-0.16216 0.24578,-0.24578 -0.16206,-0.40803 -1.14537,-0.85778 -2.94456,-1.34416 -0.5701,1.30753 -1.38597,3.29398 -2.44763,5.00955 0.0783,-0.0837 0.0365,0 -0.12563,0.24568 h -5.14641 l 1.34944,-0.61708 c -0.32959,-0.97804 -0.9415,-2.80243 -1.84109,-4.5179 l -2.573156,0.73753 c 0.815876,1.1401 1.427776,2.92268 1.835716,4.39745 h -3.185056 c -1.55321,0 -2.65697,-0.0836 -3.31069,-0.24568 0.329496,4.41415 0.114195,7.283 -0.612005,9.57727 -0.748668,2.36567 -2.20703,4.28872 -4.41415,5.75832 0,0 0.167337,0.0837 0.491655,0.24587 0.899593,0.49166 1.67356,0.98322 2.32728,1.46959 1.8829,-2.12341 3.21183,-4.16056 3.92269,-6.12972 0.67511,-1.87001 1.02502,-4.38377 1.10346,-8.46843 h 16.061796 c 1.87763,0 3.26477,0.10267 4.16837,0.24051 0.16021,0.0244 0.24061,0 0.24061,0 v -2.69341 c -0.0784,0 -0.24256,-0.0302 -0.48638,0 -1.06576,0.13197 -2.36938,0.24568 -3.92259,0.24568 h -3.43621 z m -2.44763,-7.95401 c -0.40804,-1.14537 -0.77934,-2.41109 -1.10366,-3.80224 l -3.31069,0.61718 c 0.32432,0.65372 0.73753,1.46959 1.22391,2.44763 0.3295,0.57528 0.49156,0.82115 0.49156,0.73744 h -8.090872 c -1.4694,0 -2.38306,-0.10922 -3.69352,-0.24578 -0.244314,-0.0255 -0.366128,0 -0.366128,0 v 2.81903 c 0.08372,0 0.247342,0.0242 0.491753,0 1.38851,-0.13774 2.30208,-0.24578 3.69342,-0.24578 h 16.668297 c 2.04497,0 3.63501,0.0836 4.78028,0.24578 0.16216,0 0.28779,0 0.36623,0 v -2.81903 c 0,0 -0.0784,0 -0.2406,0 -1.22909,0.16216 -2.81913,0.24578 -4.78038,0.24578 h -6.12962 z"></path><path id="_157728872" class="fil2" d="m 65.499,113.129 c 0,-1.14537 0.245779,-2.03969 0.737434,-2.69351 0.162159,-0.16734 0.245779,-0.28769 0.245779,-0.3714 0,-0.40784 -1.18718,-0.61181 -3.55647,-0.61181 0,0.0836 0,0.24578 0,0.49156 0.162159,1.06175 0.245876,2.16532 0.245876,3.31069 v 3.79707 h -0.366128 c -1.30753,0 -2.41109,-0.0784 -3.31069,-0.24588 -0.08362,0 -0.125527,0 -0.125527,0 v 2.69878 c 0.08362,0 0.204067,0 0.371306,0 0.978036,-0.16206 1.99798,-0.24578 3.06491,-0.24578 h 0.366128 v 10.6642 l -4.16847,1.34934 1.22391,2.57325 9.19453,-3.79707 -0.120252,-2.69868 -3.80234,1.71547 v -9.80654 h 0.366128 c 0.983311,0 1.88281,0.0837 2.69878,0.24578 0.162062,0 0.287589,0 0.366031,0 v -2.69878 c -0.07844,0 -0.162159,0 -0.240601,0 -0.821054,0.16743 -1.72065,0.24588 -2.69868,0.24588 h -0.491655 v -3.92259 z m 13.9749,-1.34944 c 0,-1.22372 0.203871,-2.20175 0.611907,-2.93919 0.08372,-0.16216 0.125527,-0.28769 0.125527,-0.36613 -0.245876,-0.32949 -1.30753,-0.49165 -3.19034,-0.49165 0.08362,1.30753 0.125429,2.16522 0.125429,2.57325 v 6.74163 l -3.31069,1.10346 v -3.31069 c 0,-0.57 0.204067,-1.14537 0.612005,-1.71547 0.08362,-0.24578 0.125429,-0.40784 0.125429,-0.49156 -0.08362,-0.32432 -1.14527,-0.48648 -3.19034,-0.48648 0.08372,0.40804 0.125527,1.5116 0.125527,3.30551 v 3.43612 l -3.31059,0.85779 0.732159,2.93928 2.57843,-1.22381 v 10.78459 c -0.08372,1.39116 0.162159,2.20703 0.732159,2.4529 0.408036,0.40794 1.55341,0.61191 3.43104,0.61191 h 6.50103 c 2.12351,0 3.51466,-0.24587 4.16837,-0.73216 0.653815,-0.32959 1.30763,-1.5116 1.96135,-3.55656 -0.983311,-0.24587 -1.8829,-0.81587 -2.69878,-1.71547 -0.245779,1.87763 -0.611907,2.98119 -1.10346,3.31069 -0.329594,0.32432 -1.42788,0.44975 -3.31069,0.36613 h -4.78038 c -1.22381,0 -1.96125,-0.0418 -2.20712,-0.12025 -0.245779,-0.16743 -0.366128,-0.73753 -0.366128,-1.72074 v -10.4184 l 3.31069,-1.22381 v 6.74163 c 0,1.55331 -0.08362,2.81893 -0.245779,3.79697 0,0.16743 0,0.24588 0,0.24588 h 2.81903 c 0,-0.0785 0,-0.20397 0,-0.36613 -0.162159,-0.8996 -0.245779,-2.12341 -0.245779,-3.67672 v -7.35363 l 3.80224,-1.10346 c 0,1.06166 -0.08372,2.93928 -0.245876,5.63806 0,0.32422 0,0.49156 0,0.49156 0,0.81587 -0.125429,1.26572 -0.371306,1.34416 -0.240504,0.0837 -1.10356,0 -2.57316,-0.24061 0.653717,1.22391 1.06175,2.32738 1.22899,3.30541 2.69351,-0.32412 4.12656,-1.18191 4.28872,-2.57316 0.08372,-0.81597 0.162159,-2.453 0.245876,-4.90063 0.07844,-1.55331 0.120252,-2.65687 0.120252,-3.31069 0,-0.73743 0,-1.34934 0,-1.841 0,-0.48638 0.04191,-0.97803 0.125527,-1.46969 0.07844,-0.16206 0.03663,-0.20396 -0.125527,-0.12025 -0.978036,0.48638 -3.14335,1.26572 -6.49575,2.32738 v -4.90591 z"></path><path id="_157728536" class="fil2" d="m 36.1272,109.453 c 0.653717,0.49156 1.59522,1.46959 2.81893,2.94446 l 1.96135,-0.73743 c -0.653717,-1.14537 -1.46959,-2.20703 -2.44773,-3.18506 z m 7.44907,17.3697 c 0.09827,-0.57713 0.775825,-1.55692 0.775825,-1.68274 -0.162159,-0.24578 -0.896174,-0.93232 -2.85742,-1.01076 0.08362,0.97804 0,1.87763 -0.245779,2.69351 l -7.44917,0.0361 c -2.53105,0.0122 -4.00631,-0.0785 -4.41415,-0.24578 v 2.453 c 0.40784,-0.0837 1.8409,-0.12035 4.2939,-0.12035 h 6.74163 c -1.39125,3.023 -5.23022,4.45088 -11.522,4.28872 0.894318,0.73743 1.63185,1.63175 2.20195,2.69868 5.72178,-0.8996 9.44031,-2.94456 11.1558,-6.12962 2.12868,2.93928 6.17163,4.94244 12.1391,6.00419 0.240699,-0.73236 0.774164,-1.59522 1.59004,-2.57325 0.167337,-0.24588 0.287589,-0.40804 0.371306,-0.49166 -2.12868,0.3295 -4.41425,0.12553 -6.86715,-0.6119 -2.61506,-0.81588 -4.45078,-1.87763 -5.51781,-3.18516 h 7.47906 c 2.53135,0 4.00631,0.0366 4.41425,0.12035 v -2.453 c -0.407938,0.16733 -1.91963,0.25799 -4.5345,0.24577 l -7.75483,-0.036 z m 3.34058,-14.1846 c 0.08372,-0.0784 0.203969,-0.2406 0.366128,-0.48628 0.491655,-0.65392 0.857686,-1.10366 1.10356,-1.34944 0.329496,-0.40794 0.653717,-0.69563 0.983213,-0.85779 0.162159,-0.16216 0.245876,-0.28759 0.245876,-0.36603 0.07844,-0.24587 -0.899593,-0.69562 -2.94456,-1.34944 -0.491558,1.30753 -1.14547,2.77722 -1.96135,4.40897 h -9.92669 c -2.12868,0 -3.43621,-0.0365 -3.92259,-0.12025 v 2.4529 c 0,0 0.03663,0 0.12035,0 0.57,-0.0836 1.8409,-0.12553 3.80224,-0.12553 h 6.616 v 2.453 h -4.78028 c -2.36919,0 -3.79707,-0.0837 -4.28863,-0.24587 v 2.4529 c 0.40784,-0.16207 1.87763,-0.24578 4.41415,-0.24578 h 4.65475 v 2.57316 h -6.74153 c -2.36928,0 -3.83888,-0.0417 -4.41425,-0.12025 -0.07844,0 -0.120252,0 -0.120252,0 v 2.4529 c 0,0 0.04181,0 0.120252,0 0.491655,-0.16734 2.00316,-0.24578 4.53978,-0.24578 h 15.4445 c 2.86084,0 4.5345,0.0784 5.02616,0.24578 v -2.4529 c -0.491655,0.0785 -2.16532,0.12025 -5.02616,0.12025 h -6.3755 v -2.57316 h 4.90063 c 2.453,0 3.88596,0.0837 4.2939,0.24578 v -2.4529 c -0.407938,0.16216 -1.71547,0.24587 -3.92259,0.24587 h -5.27194 v -2.453 h 6.98741 c 2.28557,0 3.63501,0.0419 4.04285,0.12553 v -2.4529 c -0.324221,0.0837 -1.67356,0.12025 -4.04285,0.12025 h -3.92259 z"></path><path id="_157728800" class="fil2" d="m 11.0576,111.66 c 0,-0.98761 0.201918,-1.47028 0.201918,-2.39605 -0.07844,-0.0836 0.109897,-0.37707 -0.386447,-0.42288 -0.405887,-0.0375 -1.44253,0 -2.77947,0.1181 0.118591,1.22665 0.385568,2.07193 0.385568,2.94671 v 5.51771 h -4.16837 c -1.38597,0 -3.06227,-0.10218 -3.87824,-0.1859 l 0.271373,2.78943 c 0,-0.0837 1.40492,-0.15581 3.60687,-0.15581 h 4.16837 v 7.72806 c -3.83898,1.14547 -6.27205,1.68626 -8.47917,2.01048 l 1.28946,2.75348 c 2.15008,-0.9455 4.91646,-1.67776 7.18971,-2.43132 0,1.06146 0,2.12302 0,3.18516 0,0.49166 -0.036632,2.12018 -0.12035,2.4445 h 2.93928 c -0.162062,-0.81587 -0.240504,-2.16522 -0.240504,-4.04285 v -19.8588 z m 6.86188,-0.85769 c 0,-0.57009 0.203969,-1.06166 0.611907,-1.46969 0.08372,-0.16733 0.125527,-0.28758 0.125527,-0.3713 0,-0.16216 -1.14527,-0.24588 -3.43612,-0.24588 0.167337,1.06693 0.245779,1.8829 0.245779,2.453 v 19.3671 c 0,1.96135 0.287686,3.23225 0.857686,3.80224 0.575372,0.65382 1.79919,0.97804 3.67682,0.97804 h 3.19044 c 1.22372,0 2.16522,-0.32422 2.81893,-0.97804 0.737434,-0.73743 1.39135,-2.00306 1.96135,-3.80224 -1.30753,-0.40803 -2.32738,-0.97803 -3.06481,-1.71547 -0.491753,2.94456 -1.34944,4.33053 -2.57325,4.16837 h -1.841 c -1.14537,0 -1.81736,-0.14028 -2.0816,-0.36613 -0.312499,-0.26697 -0.491655,-0.89959 -0.491655,-1.96125 v -8.9719 c 2.29084,-1.14019 4.65505,-2.37876 7.10775,-3.67682 0.324612,-0.17173 0.738313,-0.32187 1.22909,-0.48628 0.492339,-0.16509 0.732159,-0.28769 0.732159,-0.3714 -0.486283,-0.81598 -1.26562,-1.71557 -2.32738,-2.69351 -1.96135,1.71547 -4.21028,3.26878 -6.74163,4.65475 v -8.3136 z"></path></g><path id="_157728704" class="fil2" d="m 1.32629,148.228 v -6.31454 h 0.639455 l 3.56623,5.41895 v -5.41895 H 6.093964 V 148.228 H 5.451579 l -3.55461,-5.41895 V 148.228 H 1.326285 Z m 6.97646,-3.15214 c 0,0.86335 0.206411,1.54677 0.617573,2.05171 0.411259,0.50484 0.968755,0.75648 1.67268,0.75648 0.705295,0 1.26582,-0.25164 1.67991,-0.75511 0.41419,-0.50182 0.621969,-1.18679 0.621969,-2.05307 0,-0.86775 -0.207779,-1.55556 -0.621969,-2.06196 -0.414092,-0.50484 -0.974617,-0.75805 -1.67991,-0.75805 -0.695136,0 -1.2498,0.25467 -1.66682,0.76537 -0.415655,0.50924 -0.623434,1.19558 -0.623434,2.05464 z m -0.599892,0 c 0,-1.02287 0.260432,-1.83211 0.77983,-2.43073 0.521059,-0.59706 1.22342,-0.89559 2.11032,-0.89559 0.888262,0 1.59365,0.29853 2.11462,0.89559 0.522426,0.59862 0.782858,1.40786 0.782858,2.43073 0,1.02434 -0.260432,1.83357 -0.782858,2.4321 -0.520961,0.59706 -1.22635,0.89569 -2.11462,0.89569 -0.886894,0 -1.58926,-0.29863 -2.11032,-0.89569 -0.519398,-0.59852 -0.77983,-1.40776 -0.77983,-2.4321 z m 7.96573,-0.19019 h 1.67552 c 0.58983,0 1.01281,-0.0996 1.27178,-0.3001 0.259064,-0.20045 0.387717,-0.52526 0.387717,-0.97315 0,-0.20631 -0.04093,-0.39221 -0.121424,-0.55749 -0.08186,-0.16539 -0.198987,-0.29863 -0.349717,-0.39944 -0.117126,-0.079 -0.257501,-0.13627 -0.420051,-0.17135 -0.16382,-0.0336 -0.430211,-0.0512 -0.801907,-0.0512 h -0.244411 -1.3975 v 2.45271 z m -0.579475,3.34234 v -6.31454 h 2.10582 c 0.488822,0 0.841372,0.0204 1.06097,0.06 0.218036,0.0395 0.408231,0.10541 0.572149,0.19753 0.248709,0.14057 0.440468,0.33369 0.573614,0.58103 0.134709,0.24725 0.202015,0.52829 0.202015,0.84294 0,0.38772 -0.08782,0.71555 -0.261995,0.98184 -0.174175,0.26493 -0.42728,0.45513 -0.758046,0.56932 0.257599,0.0864 0.441933,0.21804 0.553198,0.39504 0.111265,0.17711 0.190293,0.53415 0.235619,1.07123 l 0.08196,0.94678 c 0.01026,0.14936 0.0336,0.27235 0.06731,0.36886 0.03507,0.0966 0.07903,0.16822 0.133146,0.21364 v 0.0864 h -0.642385 c -0.03517,-0.0658 -0.06301,-0.15073 -0.08636,-0.2575 -0.02198,-0.10541 -0.03956,-0.23572 -0.05119,-0.38938 l -0.07326,-0.83551 c -0.0424,-0.57811 -0.146334,-0.94541 -0.308689,-1.10346 -0.16255,-0.15942 -0.490288,-0.23845 -0.982041,-0.23845 h -1.84236 v 2.82431 h -0.579475 z m 7.48287,0 v -5.79505 h -1.95939 v -0.5195 h 4.51448 v 0.5195 h -1.95939 v 5.79505 h -0.595691 z m 3.80537,0 v -6.31454 h 0.579475 v 2.74098 h 3.61029 v -2.74098 h 0.586802 v 6.31454 h -0.586802 v -3.05553 h -3.61029 v 3.05553 z m 9.29261,-2.44821 h 2.44821 l -1.22635,-3.24875 z m -1.51756,2.44821 2.39703,-6.31454 h 0.693573 l 2.39703,6.31454 h -0.608684 l -0.71565,-1.94191 h -2.83027 l -0.728642,1.94191 h -0.604385 z m 6.61503,0 v -6.31454 h 0.815192 l 2.08384,5.55943 2.04428,-5.55943 h 0.815095 v 6.31454 h -0.561892 v -5.50384 l -2.02826,5.50384 h -0.535614 l -2.06196,-5.50384 v 5.50384 H 40.76743 Z m 7.63067,0 v -6.31454 h 4.13262 v 0.51949 h -3.55314 v 2.30188 h 3.24875 v 0.50201 h -3.24875 v 2.47166 h 3.66001 v 0.5195 z m 6.35899,-3.34234 h 1.67552 c 0.58983,0 1.01281,-0.0996 1.27178,-0.3001 0.259064,-0.20045 0.387717,-0.52526 0.387717,-0.97315 0,-0.20631 -0.04093,-0.39221 -0.121424,-0.55749 -0.08196,-0.16539 -0.198987,-0.29863 -0.349717,-0.39944 -0.117126,-0.079 -0.257501,-0.13627 -0.420051,-0.17135 -0.16382,-0.0336 -0.430211,-0.0512 -0.801907,-0.0512 H 56.1546 54.7571 v 2.45271 z m -0.579475,3.34234 v -6.31454 h 2.10582 c 0.488725,0 0.841372,0.0204 1.06097,0.06 0.218036,0.0395 0.408231,0.10541 0.572149,0.19753 0.248709,0.14057 0.440468,0.33369 0.573614,0.58103 0.134709,0.24725 0.202015,0.52829 0.202015,0.84294 0,0.38772 -0.08782,0.71555 -0.261995,0.98184 -0.174175,0.26493 -0.42728,0.45513 -0.758046,0.56932 0.257599,0.0864 0.441933,0.21804 0.553198,0.39504 0.111265,0.17711 0.190293,0.53415 0.235619,1.07123 l 0.08196,0.94678 c 0.01016,0.14936 0.0336,0.27235 0.06731,0.36886 0.03507,0.0966 0.07903,0.16822 0.133146,0.21364 v 0.0864 h -0.642385 c -0.03517,-0.0658 -0.06301,-0.15073 -0.08635,-0.2575 -0.02198,-0.10541 -0.03956,-0.23572 -0.05119,-0.38938 l -0.07326,-0.83551 c -0.0424,-0.57811 -0.146334,-0.94541 -0.308689,-1.10346 -0.16255,-0.15942 -0.490288,-0.23845 -0.982041,-0.23845 h -1.84236 v 2.82431 h -0.579475 z m 6.18335,0 v -6.31454 h 0.595691 v 6.31454 z m 6.9371,-2.06196 h 0.570684 c -0.04826,0.69953 -0.295501,1.24833 -0.738899,1.64347 -0.444864,0.3965 -1.03909,0.59412 -1.78248,0.59412 -0.848797,0 -1.51902,-0.29862 -2.01068,-0.89412 -0.491753,-0.59569 -0.737532,-1.41225 -0.737532,-2.44978 0,-1.02873 0.247342,-1.83797 0.743393,-2.42624 0.496149,-0.58983 1.17067,-0.88396 2.0224,-0.88396 0.714087,0 1.29219,0.18296 1.73413,0.54733 0.441933,0.36437 0.679018,0.85173 0.709691,1.46334 h -0.570684 c -0.04826,-0.46235 -0.240015,-0.82828 -0.575079,-1.09458 -0.333696,-0.26785 -0.766838,-0.401 -1.29806,-0.401 -0.683414,0 -1.2161,0.24295 -1.59512,0.7303 -0.380391,0.48726 -0.570781,1.1736 -0.570781,2.056 0,0.88827 0.193224,1.58486 0.581038,2.08678 0.387815,0.50338 0.921964,0.75512 1.60538,0.75512 0.557496,0 1.00529,-0.1521 1.34485,-0.45805 0.337995,-0.30586 0.52819,-0.72864 0.567753,-1.26875 z m 2.92444,-0.38626 h 2.44821 l -1.22635,-3.24875 z m -1.51756,2.44821 2.39703,-6.31454 h 0.693671 l 2.39703,6.31454 h -0.608781 l -0.71565,-1.94191 h -2.83017 l -0.72874,1.94191 h -0.604385 z m 9.07154,-3.34234 h 1.67552 c 0.58983,0 1.01271,-0.0996 1.27178,-0.30009 0.259064,-0.20045 0.387717,-0.52526 0.387717,-0.97315 0,-0.20631 -0.04093,-0.39221 -0.121424,-0.5575 -0.08196,-0.16538 -0.198987,-0.29862 -0.349717,-0.39944 -0.117126,-0.079 -0.257599,-0.13627 -0.420051,-0.17134 -0.16382,-0.0336 -0.430211,-0.0512 -0.801907,-0.0512 h -0.244411 -1.3975 v 2.45271 z m -0.579475,3.34234 v -6.31454 h 2.10573 c 0.488822,0 0.84147,0.0204 1.06107,0.06 0.218036,0.0395 0.408231,0.10541 0.572149,0.19752 0.248709,0.14058 0.440468,0.3337 0.573614,0.58104 0.134709,0.24725 0.202015,0.52829 0.202015,0.84294 0,0.38771 -0.08782,0.71555 -0.261995,0.98184 -0.174175,0.26493 -0.42728,0.45512 -0.758046,0.56932 0.257599,0.0864 0.441933,0.21803 0.5531,0.39504 0.111362,0.17711 0.190391,0.53415 0.235717,1.07123 l 0.08196,0.94678 c 0.01016,0.14936 0.0336,0.27235 0.06731,0.36886 0.03507,0.0966 0.07903,0.16822 0.133146,0.21364 v 0.0864 H 81.1203 c -0.03507,-0.0658 -0.06291,-0.15073 -0.08626,-0.2575 -0.02198,-0.10541 -0.03956,-0.23572 -0.05119,-0.38938 l -0.07326,-0.83551 c -0.0424,-0.57811 -0.146334,-0.94541 -0.308689,-1.10346 -0.16255,-0.15943 -0.490288,-0.23845 -0.982041,-0.23845 H 77.7765 v 2.82431 h -0.57948 z m 6.14828,0 v -6.31454 h 4.13262 v 0.5195 h -3.55314 v 2.30188 h 3.24875 v 0.50201 h -3.24875 v 2.47166 h 3.65992 v 0.5195 h -4.23939 z m 6.55221,-2.44821 h 2.44821 l -1.22635,-3.24875 z m -1.51756,2.44821 2.39703,-6.31454 h 0.693573 l 2.39703,6.31454 h -0.608684 l -0.71565,-1.94191 h -2.83017 l -0.72874,1.94191 h -0.604385 z m 6.62235,0 v -6.31454 h 0.595691 v 5.79505 h 3.22375 v 0.5195 h -3.81944 z m 6.902807,0 v -6.31454 h 4.13262 v 0.5195 h -3.55314 v 2.30188 h 3.24875 v 0.50201 h -3.24875 v 2.47166 h 3.66001 v 0.5195 h -4.23949 z m 5.47942,-1.9127 h 0.57958 c 0.006,0.49752 0.16245,0.8824 0.47123,1.15758 0.30869,0.27372 0.7434,0.41116 1.30245,0.41116 0.49166,0 0.87791,-0.11116 1.16042,-0.33213 0.28095,-0.22097 0.42142,-0.52682 0.42142,-0.91464 0,-0.35997 -0.098,-0.63506 -0.2956,-0.82388 -0.19752,-0.18873 -0.58973,-0.35851 -1.178,-0.50924 l -0.59998,-0.15073 c -0.64532,-0.16538 -1.09321,-0.37609 -1.34045,-0.63213 -0.24735,-0.25613 -0.37024,-0.61474 -0.37024,-1.07855 0,-0.5108 0.18727,-0.92196 0.56199,-1.23075 0.37453,-0.30879 0.87361,-0.46245 1.49988,-0.46245 0.663,0 1.18103,0.16832 1.55419,0.50631 0.37317,0.33663 0.56336,0.80933 0.57215,1.41518 h -0.5868 c -0.009,-0.44926 -0.14926,-0.79468 -0.42005,-1.03909 -0.27215,-0.24431 -0.65264,-0.3673 -1.1444,-0.3673 -0.46235,0 -0.82242,0.10394 -1.07553,0.31318 -0.25467,0.20788 -0.38195,0.50338 -0.38195,0.8824 0,0.28984 0.0834,0.51657 0.2488,0.68498 0.16529,0.16675 0.44047,0.29843 0.82242,0.39651 l 0.73754,0.18297 c 0.72874,0.18286 1.23944,0.41555 1.53358,0.69503 0.29413,0.27948 0.44193,0.66583 0.44193,1.15758 0,0.56629 -0.19313,1.01125 -0.58094,1.33752 -0.38772,0.32637 -0.91601,0.48883 -1.58779,0.48883 -0.75219,0 -1.33166,-0.17711 -1.73696,-0.52976 -0.4054,-0.35274 -0.60888,-0.85758 -0.60888,-1.51619 v -0.0424 z m 7.42299,1.9127 v -5.79505 h -1.95949 v -0.51949 h 4.51448 v 0.51949 h -1.95939 v 5.79505 h -0.59559 z m 4.26489,-2.44821 h 2.44831 l -1.22635,-3.24875 z m -1.51746,2.44821 2.39703,-6.31454 h 0.69358 l 2.39703,6.31454 h -0.60869 l -0.71575,-1.94191 h -2.83017 l -0.72874,1.94191 h -0.60428 z m 7.64376,0 v -5.79505 h -1.95939 v -0.51949 h 4.51448 v 0.51949 h -1.95939 v 5.79505 h -0.59569 z m 3.80537,0 v -6.31454 h 4.13262 v 0.5195 h -3.55314 v 2.30188 h 3.24885 v 0.50201 h -3.24885 v 2.47166 h 3.66001 v 0.5195 h -4.23949 z m 8.42193,-2.44821 h 2.44821 l -1.22635,-3.24875 z m -1.51756,2.44821 2.39703,-6.31454 h 0.69358 l 2.39703,6.31454 h -0.60869 l -0.71565,-1.94191 h -2.83027 l -0.72864,1.94191 z m 11.0476,-2.06196 h 0.57069 c -0.0483,0.69953 -0.2956,1.24833 -0.7389,1.64347 -0.44496,0.39651 -1.03909,0.59413 -1.78248,0.59413 -0.8488,0 -1.51902,-0.29863 -2.01068,-0.89412 -0.49176,-0.59569 -0.73753,-1.41225 -0.73753,-2.44978 0,-1.02873 0.24724,-1.83797 0.74339,-2.42624 0.49605,-0.58983 1.17067,-0.88397 2.0223,-0.88397 0.71418,0 1.29219,0.18297 1.73423,0.54734 0.44193,0.36437 0.67902,0.85173 0.70969,1.46334 h -0.57068 c -0.0483,-0.46235 -0.24002,-0.82828 -0.57518,-1.09458 -0.3337,-0.26786 -0.76684,-0.401 -1.29806,-0.401 -0.68332,0 -1.216,0.24294 -1.59502,0.7303 -0.38049,0.48726 -0.57078,1.1736 -0.57078,2.056 0,0.88826 0.19312,1.58486 0.58104,2.08678 0.38781,0.50338 0.92196,0.75512 1.60538,0.75512 0.55749,0 1.00529,-0.1521 1.34475,-0.45805 0.33809,-0.30586 0.52828,-0.72865 0.56785,-1.26875 z m 2.92444,-0.38625 h 2.44821 l -1.22635,-3.24875 z m -1.51756,2.44821 2.39703,-6.31454 h 0.69358 l 2.39703,6.31454 h -0.60869 l -0.71565,-1.94191 h -2.83017 l -0.72874,1.94191 h -0.60438 z m 7.20183,-0.5195 h 1.22196 c 0.4771,0 0.82535,-0.0176 1.04632,-0.0541 0.2195,-0.0352 0.40247,-0.0966 0.5488,-0.1815 0.31895,-0.19167 0.5576,-0.48443 0.71565,-0.87654 0.1565,-0.39221 0.23553,-0.89852 0.23553,-1.51902 0,-0.5912 -0.0761,-1.08432 -0.22683,-1.47653 -0.1522,-0.39231 -0.37756,-0.68781 -0.67755,-0.88533 -0.15513,-0.10248 -0.34386,-0.17564 -0.56776,-0.21804 -0.22536,-0.0425 -0.60438,-0.0645 -1.13853,-0.0645 h -0.13754 -1.02004 v 5.27555 z m 0.90438,-5.79505 h 0.42885 c 0.52096,0 0.91024,0.0279 1.17067,0.082 0.26052,0.0541 0.48442,0.14048 0.67315,0.26044 0.38782,0.24587 0.68488,0.60887 0.88983,1.08735 0.20338,0.47846 0.30575,1.05071 0.30575,1.71654 0,0.71711 -0.11116,1.31994 -0.33359,1.80876 -0.2239,0.48882 -0.5532,0.85162 -0.99074,1.08871 -0.18287,0.0981 -0.40686,0.16684 -0.67316,0.20934 -0.26639,0.041 -0.67169,0.0614 -1.21756,0.0614 h -1.73706 v -6.31454 z m 5.10196,6.31454 v -6.31454 h 4.13262 v 0.5195 h -3.55314 v 2.30188 h 3.24875 v 0.50201 h -3.24875 v 2.47166 h 3.66001 v 0.5195 h -4.23949 z m 5.77219,0 v -6.31454 h 0.81519 l 2.08384,5.55943 2.04428,-5.55943 h 0.8151 v 6.31454 h -0.56189 v -5.50384 l -2.02826,5.50384 h -0.53562 l -2.06196,-5.50384 v 5.50384 z m 9.09704,0 v -2.77312 l -2.22881,-3.54142 h 0.66437 l 1.85272,2.98822 1.85555,-2.98822 h 0.66436 l -2.22871,3.54142 v 2.77312 h -0.57947 z"></path></g></g></svg>