<svg width="49px" height="39px" viewBox="0 0 49 39" version="1.1" xmlns="http://www.w3.org/2000/svg" xmlns:xlink="http://www.w3.org/1999/xlink">
    <path d="M49,39 L49,21.2333333 L39.8211921,21.2333333 L39.8211921,18.9222222 C39.8211921,12.5666667 42.3465784,9.38888889 47.397351,9.38888889 L47.397351,9.38888889 L47.397351,0 C40.6953642,0 35.6203091,1.97407407 32.1721854,5.92222222 C28.7240618,9.87037037 27,14.9259259 27,21.0888889 C27,27.2518519 27.9713024,33.2222222 29.9139073,39 L29.9139073,39 L49,39 Z M22,39 L22,21.2333333 L12.8211921,21.2333333 L12.8211921,18.9222222 C12.8211921,12.5666667 15.3465784,9.38888889 20.397351,9.38888889 L20.397351,9.38888889 L20.397351,0 C13.6953642,0 8.62030905,1.97407407 5.17218543,5.92222222 C1.72406181,9.87037037 0,14.9259259 0,21.0888889 C0,27.2518519 0.971302428,33.2222222 2.91390728,39 L2.91390728,39 L22,39 Z"></path>
</svg>